HIERARCHY
ROOT Hips
{
	OFFSET 0.00000 0.00000 0.00000
	CHANNELS 6 Xposition Yposition Zposition Zrotation Yrotation Xrotation 
	JOINT LHipJoint
	{
		OFFSET 0 0 0
		CHANNELS 3 Zrotation Yrotation Xrotation
		JOINT LeftUpLeg
		{
			OFFSET 1.41496 -1.84582 0.78394
			CHANNELS 3 Zrotation Yrotation Xrotation
			JOINT LeftLeg
			{
				OFFSET 2.58040 -7.08960 0.00000
				CHANNELS 3 Zrotation Yrotation Xrotation
				JOINT LeftFoot
				{
					OFFSET 2.64719 -7.27309 0.00000
					CHANNELS 3 Zrotation Yrotation Xrotation
					JOINT LeftToeBase
					{
						OFFSET 0.20718 -0.56921 2.20259
						CHANNELS 3 Zrotation Yrotation Xrotation
						End Site
						{
							OFFSET 0.00000 -0.00000 1.14243
						}
					}
				}
			}
		}
	}
	JOINT RHipJoint
	{
		OFFSET 0 0 0
		CHANNELS 3 Zrotation Yrotation Xrotation
		JOINT RightUpLeg
		{
			OFFSET -1.40551 -1.84582 0.78394
			CHANNELS 3 Zrotation Yrotation Xrotation
			JOINT RightLeg
			{
				OFFSET -2.56572 -7.04926 0.00000
				CHANNELS 3 Zrotation Yrotation Xrotation
				JOINT RightFoot
				{
					OFFSET -2.57974 -7.08778 0.00000
					CHANNELS 3 Zrotation Yrotation Xrotation
					JOINT RightToeBase
					{
						OFFSET -0.26704 -0.73369 2.20815
						CHANNELS 3 Zrotation Yrotation Xrotation
						End Site
						{
							OFFSET -0.00000 -0.00000 1.16246
						}
					}
				}
			}
		}
	}
	JOINT LowerBack
	{
		OFFSET 0 0 0
		CHANNELS 3 Zrotation Yrotation Xrotation
		JOINT Spine
		{
			OFFSET -0.04690 2.05196 -0.07017
			CHANNELS 3 Zrotation Yrotation Xrotation
			JOINT Spine1
			{
				OFFSET 0.04085 2.05260 0.00800
				CHANNELS 3 Zrotation Yrotation Xrotation
				JOINT Neck
				{
					OFFSET 0 0 0
					CHANNELS 3 Zrotation Yrotation Xrotation
					JOINT Neck1
					{
						OFFSET -0.03582 1.80995 0.19301
						CHANNELS 3 Zrotation Yrotation Xrotation
						JOINT Head
						{
							OFFSET 0.00952 1.80195 -0.36389
							CHANNELS 3 Zrotation Yrotation Xrotation
							End Site
							{
								OFFSET 0.00392 1.85062 -0.14494
							}
						}
					}
				}
				JOINT LeftShoulder
				{
					OFFSET 0 0 0
					CHANNELS 3 Zrotation Yrotation Xrotation
					JOINT LeftArm
					{
						OFFSET 3.55224 1.39726 -0.13667
						CHANNELS 3 Zrotation Yrotation Xrotation
						JOINT LeftForeArm
						{
							OFFSET 5.14507 -0.00000 -0.00000
							CHANNELS 3 Zrotation Yrotation Xrotation
							JOINT LeftHand
							{
								OFFSET 3.50646 -0.00000 0.00000
								CHANNELS 3 Zrotation Yrotation Xrotation
								JOINT LeftFingerBase
								{
									OFFSET 0 0 0
									CHANNELS 3 Zrotation Yrotation Xrotation
									JOINT LeftHandIndex1
									{
										OFFSET 0.62997 -0.00000 0.00000
										CHANNELS 3 Zrotation Yrotation Xrotation
										End Site
										{
											OFFSET 0.50790 -0.00000 0.00000
										}
									}
								}
								JOINT LThumb
								{
									OFFSET 0 0 0
									CHANNELS 3 Zrotation Yrotation Xrotation
									End Site
									{
										OFFSET 0.51565 -0.00000 0.51565
									}
								}
							}
						}
					}
				}
				JOINT RightShoulder
				{
					OFFSET 0 0 0
					CHANNELS 3 Zrotation Yrotation Xrotation
					JOINT RightArm
					{
						OFFSET -3.06467 1.61290 -0.28813
						CHANNELS 3 Zrotation Yrotation Xrotation
						JOINT RightForeArm
						{
							OFFSET -5.23200 -0.00000 -0.00000
							CHANNELS 3 Zrotation Yrotation Xrotation
							JOINT RightHand
							{
								OFFSET -3.65641 -0.00000 0.00000
								CHANNELS 3 Zrotation Yrotation Xrotation
								JOINT RightFingerBase
								{
									OFFSET 0 0 0
									CHANNELS 3 Zrotation Yrotation Xrotation
									JOINT RightHandIndex1
									{
										OFFSET -0.65681 -0.00000 0.00000
										CHANNELS 3 Zrotation Yrotation Xrotation
										End Site
										{
											OFFSET -0.52953 -0.00000 0.00000
										}
									}
								}
								JOINT RThumb
								{
									OFFSET 0 0 0
									CHANNELS 3 Zrotation Yrotation Xrotation
									End Site
									{
										OFFSET -0.53762 -0.00000 0.53762
									}
								}
							}
						}
					}
				}
			}
		}
	}
}
MOTION
Frames: 5
Frame Time: .0083333
5.708 15.3106 36.0896 0 0 0 0 0 0 -21 0 0 0 0 0 0 0 0 0 0 0 0 0 0 21 0 0 0 0 0 0 0 0 0 0 0 0 0 0 0 0 0 0 0 0 0 0 -16 0 0 21 0 0 11 0 0 0 -8 0 0 0 0 0 0 0 0 0 0 0 0 0 0 0 0 0 0 0 0 8 0 0 0 0 0 0 0 0 0 0 0 0 0 0 0 0 0
5.7080 15.3106 36.0896 -177.6300 -1.5554 -157.8340 0.0000 0.0000 0.0000 -24.0949 -14.1516 -58.3920 12.5916 18.6297 67.8521 1.5075 -13.6186 -22.5863 2.0790 9.0287 25.8852 0.0000 0.0000 0.0000 18.7055 -3.5873 -16.3145 -15.6191 -19.5335 77.0949 -0.0867 -6.2936 6.4173 -0.1386 2.3994 -6.6109 3.4171 1.8167 17.4576 1.3943 3.0083 0.5161 -1.1625 1.2305 -9.1446 -1.6204 -1.8350 -18.6010 0.0838 -2.7304 -1.1297 0.0780 -1.6259 2.9058 0.0000 -0.0000 0.0000 -90.7675 23.9414 34.8413 73.9875 -59.0087 -46.1789 -0.0000 0.0000 -10.9929 26.6837 -8.5041 -4.2506 -7.1250 0.0000 -0.0000 -0.1440 20.4795 0.0845 0.0000 -0.0000 0.0000 88.7524 -5.7164 32.8257 -64.3379 57.3592 -37.9730 0.0000 -0.0000 -15.6597 -31.4020 2.5037 -1.5275 7.1250 -0.0000 -0.0000 -3.6815 -27.0426 -1.6083
5.6934 15.2681 35.6624 -178.1990 -1.6425 -157.9720 0.0000 0.0000 0.0000 -24.5706 -15.1473 -56.0033 12.6724 18.6607 68.1049 1.8657 -13.4780 -24.8826 1.9921 8.8496 25.3260 0.0000 0.0000 0.0000 17.3733 -3.4942 -19.6770 -17.0354 -19.7880 81.3026 -0.0284 -4.9125 4.3332 -0.1536 2.5251 -6.9592 3.1041 1.7230 17.7486 1.2194 2.8336 0.4245 -1.1445 1.1553 -9.4219 -1.9326 -1.9075 -18.5002 0.3497 -2.7828 -1.2764 0.2192 -1.6434 2.8455 0.0000 0.0000 0.0000 -91.1517 21.6761 35.2251 71.1547 -58.6146 -43.7554 -0.0000 0.0000 -11.1147 26.7974 -8.6502 -4.3441 -7.1250 0.0000 -0.0000 -0.0701 20.3075 0.0414 0.0000 0.0000 0.0000 88.9595 -6.7750 31.8743 -60.9518 56.5583 -35.1342 0.0000 -0.0000 -16.8567 -31.5609 2.7579 -1.6929 7.1250 -0.0000 -0.0000 -3.7873 -26.7400 -1.6816
5.6815 15.2233 35.2433 -178.5510 -1.5881 -157.9720 0.0000 0.0000 0.0000 -24.7724 -16.0417 -53.9186 12.7834 18.7026 68.4514 2.2002 -13.0528 -26.8639 1.8425 8.5299 24.3356 0.0000 0.0000 0.0000 16.2418 -3.1193 -23.2893 -18.3635 -19.9357 85.2104 -0.0179 -4.1475 3.5776 -0.0844 1.8738 -5.1570 2.8461 1.6879 17.9681 1.1023 2.7532 0.2575 -1.1169 1.1246 -9.7392 -2.0529 -2.0040 -18.5048 0.3647 -2.8872 -1.2684 0.2368 -1.6952 2.8526 -0.0000 0.0000 0.0000 -91.5758 19.5927 35.5727 69.0048 -58.2671 -41.9234 -0.0000 0.0000 -11.3003 27.0406 -8.9433 -4.5368 -7.1250 0.0000 -0.0000 0.0876 19.9599 -0.0524 -0.0000 0.0000 0.0000 89.0517 -8.0115 30.9949 -58.2116 55.8142 -32.8573 0.0000 -0.0000 -17.7750 -31.9472 2.3264 -1.4500 7.1250 -0.0000 -0.0000 -4.1089 -27.2326 -1.7775
5.6656 15.1761 34.8342 -178.5740 -1.0128 -157.6710 0.0000 0.0000 0.0000 -24.7940 -16.4009 -52.5197 12.8833 18.7396 68.7627 2.4414 -13.0696 -28.2686 1.7858 8.4049 23.9509 0.0000 0.0000 0.0000 15.1957 -1.8444 -27.2972 -19.6226 -19.9966 88.8964 0.0066 -3.4129 2.0510 -0.1167 2.2021 -6.0645 2.6729 1.8727 17.8316 0.9304 2.9586 0.1555 -1.2562 1.2315 -9.7672 -2.1651 -2.0943 -18.8049 0.5797 -3.0077 -1.3193 0.3142 -1.7543 2.8978 0.0000 0.0000 0.0000 -91.8839 17.4874 35.9742 68.0268 -58.0947 -41.0924 -0.0000 0.0000 -11.5786 26.7775 -9.1553 -4.5907 -7.1250 0.0000 -0.0000 -0.1127 19.7468 0.0680 0.0000 0.0000 0.0000 89.2650 -8.9985 30.0131 -55.5743 55.0104 -30.6860 0.0000 -0.0000 -17.8781 -32.3469 2.4281 -1.5369 7.1250 -0.0000 -0.0000 -4.4076 -27.0997 -1.9211
